<svg width="24" height="24" viewBox="0 0 24 24" fill="none" xmlns="http://www.w3.org/2000/svg">
  <!-- 扳手 -->
  <path d="M22.7 19L13.6 9.9C14.5 7.6 14 4.9 12.1 3C10.1 1 7.1 1 5.1 3L9.6 7.5L8.4 8.7L4 4.2C2 6.2 2 9.2 4 11.1C5.9 13 8.6 13.5 10.9 12.6L20 21.7C20.4 22.1 21 22.1 21.4 21.7L22.7 20.4C23.1 20 23.1 19.4 22.7 19Z" fill="currentColor"/>
  
  <!-- 螺丝刀 -->
  <path d="M20.8 3.2L18.8 1.2C18.4 0.8 17.8 0.8 17.4 1.2L15.7 2.9L19.1 6.3L20.8 4.6C21.2 4.2 21.2 3.6 20.8 3.2Z" fill="currentColor"/>
  <path d="M14.3 4.3L4.7 13.9C4.5 14.1 4.3 14.4 4.3 14.7V17C4.3 17.6 4.7 18 5.3 18H7.6C7.9 18 8.2 17.9 8.4 17.7L18 8.1L14.3 4.3Z" fill="currentColor"/>
  
  <!-- 齿轮装饰 -->
  <circle cx="6" cy="18" r="2" fill="currentColor" opacity="0.6"/>
  <path d="M6 16V20M4 18H8" stroke="currentColor" stroke-width="0.5" opacity="0.6"/>
</svg>
